<?xml version="1.0" encoding="iso-8859-1"?>
<!-- Uploaded to: SVG Repo, www.svgrepo.com, Generator: SVG Repo Mixer Tools -->
<!DOCTYPE svg PUBLIC "-//W3C//DTD SVG 1.1//EN" "http://www.w3.org/Graphics/SVG/1.1/DTD/svg11.dtd">
<svg fill="#000000" version="1.1" id="Capa_1" xmlns="http://www.w3.org/2000/svg" xmlns:xlink="http://www.w3.org/1999/xlink" 
	 width="275" height="135" viewBox="0 0 99.033 99.033"
	 xml:space="preserve">
<g>
	<g>
		<path d="M62.66,49.127c0.027-2.483-0.884-4.437-3.191-5.493c-2.296-1.05-4.4-0.578-6.209,1.171
			c-0.131,0.126-0.387,0.412-0.387,0.412s-0.189-0.191-0.354-0.354c-2.112-2.078-4.524-2.164-7.075-0.753l0.008-1.033h-2.398
			l0.001,6.516c-0.941,2.192-3.104,4.282-3.104,4.282c-0.446,0.384-0.938,0.721-1.495,0.986c-1.233,0.586-2.026,0.402-2.733-0.404
			c-0.547-0.623-0.735-2.01-0.735-2.01s0.508-0.572,0.84-0.963c0.339-0.397,0.692-0.791,0.987-1.22
			c1.038-1.503,1.935-3.082,1.918-4.969c-0.015-1.791-1.47-2.675-3.101-1.873c-0.721,0.354-1.363,1.01-1.773,1.671
			c-1.211,1.958-1.494,4.127-1.559,6.369c-0.013,0.451,0.013,0.904,0.013,0.904s-1.995,1.78-2.941,2.393
			c-0.826,0.535-1.663,0.806-2.515,0.102c-0.732-0.605-0.859-1.93-0.339-2.861c0.967-1.728,1.755-3.44,2.667-5.195
			c1.633-3.146,3.778-6.256,4.48-9.756c0.362-1.808,0.79-3.987-1.253-5.398c-2.526-1.457-6.083,1.013-6.667,7.257l-0.918,11.5
			c0.003,0.379-0.218,2.158-0.218,2.158s-2.031,3.188-3.445,2.967c-0.637-0.242-0.814-1-0.873-1.555
			c-0.237-2.179,0.077-4.279,0.905-6.313c0.172-0.424,0.475-0.971-0.22-1.223c-0.641-0.234-1.182-0.063-1.437,0.637
			c-0.095,0.262-0.187,0.523-0.288,0.781c-0.746,1.919-1.659,3.748-3.009,5.332c-0.588,0.69-1.195,1.468-2.286,1.075
			c-0.683-0.246-0.875-1.289-0.455-2.538c1.303-3.877,5.344-6.564,6.348-6.872c0.355-0.109,0.871-0.325,0.855-0.68
			c-0.025-0.573-0.571-0.844-1.167-0.864c-1.14-0.043-2.137,0.353-3.055,0.977c-2.275,1.542-3.816,3.624-4.828,6.15
			c-0.982,2.45-2.88,3.976-5.441,4.65c-1.43,0.376-2.684-0.117-3.345-1.157c-1.394-2.193,0.242-7.896,2.604-9.064
			c0.393-0.195,0.819-0.296,1.21-0.056c1.092,0.723,0.402,1.965,0.148,2.612c-0.146,0.305-0.517,0.813,0.029,1.01
			c0.567,0.204,1.063-0.484,1.063-0.484c0.709-0.829,0.922-2.687,0.386-3.648c-0.611-1.096-1.564-1.322-2.757-1.167
			c-1.055,0.138-1.946,0.623-2.716,1.325c-1.085,0.992-1.763,2.227-2.266,3.58c-0.188,0.506-1.359,4.542,0.337,7.106
			c0.798,1.341,1.991,2.017,3.593,1.915c2.28-0.145,4.188-1.097,5.821-2.624c0.249-0.233,0.773-0.913,0.976-1.196
			c-0.004,2.805,1.732,4.104,3.915,3.325c0.858-0.305,1.848-1.706,2.369-2.452c0.209-0.3,0.356-0.635,0.573-1.021
			c0.141-0.197,0.195-0.054,0.202,0.046c0.381,5.188,4.068,4.794,6.139,1.861c-0.063,0.613-0.203,1.757-0.249,2.316
			c-0.217,2.694-0.452,5.389,0.064,8.081c0.621,2.669,2.414,2.482,2.679,2.286c1.306-0.566,1.688-2.688,1.462-4.447
			c-0.288-2.235-2.244-6.492-2.199-6.449c3.206,0.369,4.883-1.506,6.443-2.877c1.114,2.468,2.387,3.353,4.563,3.104
			c1.05-0.214,1.938-0.631,2.69-1.131c0,0,2.283-1.784,3.104-3.307v5.479h2.304v-9.458c0.007-1.417,0.833-2.583,2.108-3.044
			c2.184-0.787,4.274,0.809,4.305,3.339l0.023,9.163h2.213l0.018-9.412c-0.006-0.922,0.257-1.721,0.925-2.346
			c0.967-0.907,2.09-1.197,3.36-0.722c1.234,0.463,2.052,1.597,2.064,2.97l0.004,9.509h2.281L62.66,49.127z M29.132,37.058
			c0.221-0.698,0.618-1.86,0.92-2.336c0.283-0.444,0.68-0.903,1.303-0.687c0.559,0.193,0.603,0.748,0.626,1.248
			c0.049,1.089-0.614,3.489-0.968,4.443c-1.054,2.837-2.495,5.498-3.943,8.151c-0.108,0.198-0.56,0.907-0.56,0.907
			S27.968,40.744,29.132,37.058z M26.686,64.665c0.009,0.521,0.021,1.188-0.63,1.258c-0.615,0.066-0.854-0.549-0.947-1.063
			c-0.365-2.021-0.239-4.054-0.109-6.348C25.908,60.648,26.655,62.561,26.686,64.665z M35.787,45.681
			c0.167-0.384,0.472-0.947,0.977-0.873c0.599,0.089,0.592,0.672,0.56,1.086c-0.141,1.801-2.429,4.796-2.429,4.796
			S35.113,47.226,35.787,45.681z"/>
		<path d="M99.031,49c0.027-2.482-0.884-4.436-3.191-5.492c-2.296-1.05-4.4-0.578-6.209,1.17c-0.132,0.127-0.387,0.413-0.387,0.413
			s-0.189-0.191-0.355-0.354c-2.11-2.077-4.521-2.163-7.073-0.752l0.009-1.032h-2.398l0.002,14.981h2.282l0.021-9.458
			c0.008-1.418,0.834-2.584,2.108-3.044c2.183-0.789,4.273,0.808,4.306,3.338l0.023,9.164h2.212l0.019-9.414
			c-0.008-0.92,0.256-1.72,0.924-2.345c0.966-0.908,2.091-1.198,3.359-0.722c1.236,0.462,2.054,1.596,2.065,2.97l0.005,9.51h2.281
			L99.031,49z"/>
		<path d="M71.203,43.019c-4.171-0.014-7.533,3.26-7.609,7.41c-0.074,4.083,3.334,7.536,7.451,7.551
			c4.215,0.016,7.613-3.34,7.598-7.5C78.626,46.404,75.265,43.035,71.203,43.019z M71.117,55.683c-2.908,0-5.267-2.344-5.244-5.213
			c0.022-2.847,2.438-5.206,5.309-5.178c2.82,0.024,5.172,2.383,5.182,5.19C76.371,53.372,74.041,55.683,71.117,55.683z"/>
	</g>
</g>
</svg>